<svg height="371" width="322" xmlns="http://www.w3.org/2000/svg">
	<style>
		path { fill: black }
		@media (prefers-color-scheme: dark) { path { fill: white } }
	</style>
	<path d="m166.61 101v33.9h15v-33.9c0-2.1-.8-3.9-2.2-5.3-1.5-1.5-3.3-2.2-5.3-2.2-2.1 0-3.9.7-5.3 2.2-1.5 1.4-2.2 3.2-2.2 5.3z"/><path d="m279.21 85.9c1.2-9.3.7-18.5-1.4-27.7-2.3-9.1-7.7-17-16.2-23.5-.7 10.8.3 21.7 3.2 32.6-9.3-3.5-18.9-5.1-28.8-5 5.8 7.1 12 11.8 18.5 14 6.6 2.2 14.8 5.4 24.7 9.6z"/><path d="m274.91 112.9c1.6 9 4.6 16.1 9.2 21.3 4.5 5.2 10 12.1 16.5 20.7 5.8-7.4 10-15.6 12.6-24.7 2.7-9 1.9-18.5-2.2-28.4-6.1 9-10.6 18.9-13.6 29.8-6.3-7.7-13.8-13.9-22.5-18.7z"/><path d="m294.41 118.9c3.7-8.6 5.6-17.7 5.9-27.1.1-9.4-3-18.3-9.6-26.9-3.4 10.3-5.3 21.1-5.3 32.3-8.1-5.7-17-9.8-26.6-12.2 3.9 8.3 8.6 14.4 14.4 18.2 5.7 3.9 12.7 9.1 21.2 15.7z"/><path d="m219.31 54.8 19.5-35.1c-23.3-13.2-49.2-19.8-77.9-19.7-28.7-.1-54.7 6.5-78 19.8l19.5 35c17.4-9.9 36.9-14.8 58.4-14.8 21.6 0 41 4.9 58.5 14.8zm-23.1-40.4-7.1-1.2-4.2 23.6-4.7-.8 4.2-23.7-7.1-1.2.8-4.7 18.9 3.3zm28.5 12.8-4.4-1.8.1-.4-1-2.5-5.3-2.1-2.6 1-5.7 14.2 1.1 2.6 5.3 2.1 2.5-1.1.2-.4 4.4 1.8-.9 2.2-6.4 2.6-8.7-3.5-2.7-6.3 7.2-17.8 6.3-2.6 8.9 3.6 2.6 6.2zm-128.8-2.3 2.7-6.2 8.9-3.6 6.2 2.6.9 2.2-4.4 1.8-.2-.4-2.5-1-5.3 2.1-1.1 2.5 5.7 14.2 2.6 1.1 5.3-2.1 1-2.6-.1-.4 4.4-1.8.9 2.2-2.8 6.4-8.7 3.5-6.3-2.7zm62.5-19.2h4.8v28.8h-4.8zm-19.7 1.6 5.6 3.8.4 2.4-4.7.8-.2-.4-2.2-1.6-5.6 1-1.6 2.3 2.7 15 2.2 1.6 5.6-1 1.6-2.2-.4-2.8-2.4.4-.9-4.8 7.1-1.2 1.7 9.4-4.1 5.6-9.2 1.7-5.6-3.9-3.3-18.9 3.9-5.6z"/><path d="m315.91 170.7c4.8-8 6.6-17.4 5.2-28.1-8.2 7.2-15.2 15.7-20.8 25.4-4.1-9-9.8-17-16.9-23.9-.9 9.1.2 16.8 3.3 22.9 3 6.2 6.6 14.3 10.6 24.3 7.5-5.7 13.7-12.5 18.6-20.6z"/><path d="m280.61 199.4c1.3 6.7 2.6 15.5 4 26.2 8.7-3.6 16.4-8.6 23.2-15.1s10.9-15.1 12.3-25.8c-9.7 4.9-18.6 11.2-26.6 19.1-1.7-9.8-5.1-18.9-10.1-27.4-3.2 8.5-4.1 16.2-2.8 23z"/><path d="m266.31 229.1c0 .6-.1 1.1-.1 1.6-.5 6.6-1.5 14.9-2.8 24.7 9.3-1.2 18-4 26.3-8.5 6.7-3.7 12-9 15.9-16.2 1-1.7 1.9-3.6 2.7-5.5-6.4 1.2-12.5 3.1-18.4 5.5-4.2 1.7-8.3 3.7-12.3 6 .2-2 .3-4 .3-6 .2-7.8-.8-15.5-3-23.1-5.3 7.4-8.1 14.6-8.6 21.5z"/><path d="m243.11 166.5c1.4-1.5 2.2-3.3 2.2-5.3 0-2.1-.8-3.9-2.2-5.3-1.5-1.5-3.3-2.2-5.3-2.2h-37.3v15h37.3c2 0 3.8-.8 5.3-2.2z"/><path d="m176.21 159.3 20 20v-30c0-2.8-.9-5.1-2.9-7.1-1.9-1.9-4.3-2.9-7.1-2.9h-40c-2.7 0-5.1 1-7 2.9l-40 40c-2 2-3 4.3-3 7.1 0 2.7 1 5.1 3 7.1 1.9 1.9 4.3 2.9 7 2.9 2.8 0 5.2-1 7.1-2.9l32.9-33 15.9 15.9h-15.9c-2.7 0-5.1 1-7 2.9-.7.7-1.2 1.3-1.6 2.1-.9 1.4-1.4 3.1-1.4 5v40c0 .5.1 1 .1 1.4.3 2.2 1.2 4 2.9 5.7 1.9 1.9 4.3 2.9 7 2.9 2.8 0 5.1-1 7.1-2.9 1.6-1.7 2.6-3.5 2.8-5.7.1-.4.1-.9.1-1.4v-30h25.9l37.1 37.1c1.9 1.9 4.3 2.9 7 2.9 2.8 0 5.2-1 7.1-2.9 1.6-1.7 2.6-3.5 2.8-5.7.1-.4.1-.9.1-1.4 0-2.8-.9-5.1-2.9-7.1l-62.9-62.9z"/><path d="m223.91 284.9c5.7-8.1 9.8-16.9 12.2-26.6-8.3 3.9-14.4 8.6-18.2 14.4-3.9 5.7-9.1 12.8-15.7 21.3 8.6 3.6 17.7 5.5 27.1 5.8 9.4.2 18.4-3 26.9-9.6-10.3-3.4-21.1-5.2-32.3-5.3z"/><path d="m245.01 254c-2.2 6.6-5.4 14.8-9.6 24.7 9.3 1.3 18.5.8 27.7-1.4 9.1-2.3 16.9-7.7 23.5-16.2-10.9-.7-21.7.4-32.6 3.2 3.4-9.3 5.1-18.9 4.9-28.8-7 5.8-11.6 12-13.9 18.5z"/><path d="m189.51 312.4c.4.1.9.3 1.4.4 9 2.7 18.5 1.9 28.4-2.2-.4-.3-.8-.6-1.3-.9-2.8-1.8-5.7-3.4-8.7-5-2.7-1.4-5.5-2.6-8.4-3.7z"/><path d="m189.21 281.8 7.9 8c4.3-4.6 8-9.7 11.1-15.2-7.8 1.3-14.1 3.7-19 7.2z"/><path d="m10.61 101.8c-4.2 9.9-4.9 19.4-2.3 28.4 2.7 9.1 6.9 17.3 12.7 24.7 6.4-8.6 11.9-15.5 16.5-20.7 4.5-5.2 7.6-12.3 9.1-21.3-8.7 4.8-16.2 11-22.5 18.7-3-10.9-7.5-20.8-13.5-29.8z"/><path d="m21.31 91.8c.2 9.4 2.1 18.5 5.8 27.1 8.5-6.6 15.6-11.8 21.3-15.7 5.7-3.8 10.5-9.9 14.3-18.2-9.6 2.4-18.5 6.5-26.6 12.2 0-11.2-1.8-22-5.3-32.3-6.5 8.6-9.7 17.5-9.5 26.9z"/><path d="m43.81 58.2c-2.2 9.2-2.7 18.4-1.4 27.7 9.9-4.2 18.1-7.4 24.6-9.6s12.8-6.9 18.6-14c-9.9-.1-19.6 1.5-28.9 5 2.9-10.9 3.9-21.8 3.3-32.6-8.6 6.5-14 14.4-16.2 23.5z"/><path d="m124.41 80.8v-1.9h-9.3v13.2h9.3v-7.5h-3.7v1.8h1.9v3.7h-5.7v-9.3z"/><path d="m142.31 77.7-6-6v28l6 12z"/><path d="m103.31 71.7-6 6v34l6-12z"/><path d="m118.31 133.7c-2.8 0-5.2.9-7.1 2.9-2 1.9-2.9 4.3-2.9 7.1 0 2.7.9 5.1 2.9 7 1.9 2 4.3 3 7.1 3 2.7 0 5.1-1 7-3 2-1.9 3-4.3 3-7 0-2.8-1-5.2-3-7.1-1.9-2-4.3-2.9-7-2.9z"/><path d="m118.71 102.3c-4.4 0-8.9-.4-13.5-.9l-6.7 13.5h42.5l-6.7-13.5c-5.1.7-10.3 1-15.6.9z"/><path d="m114.31 204.7c0 2.7.9 5.1 2.9 7 1.9 2 4.3 3 7.1 3 2.7 0 5-1 7-3 2-1.9 3-4.3 3-7 0-2.8-1-5.2-3-7.1-2-2-4.3-2.9-7-2.9-2.8 0-5.2.9-7.1 2.9-2 1.9-2.9 4.3-2.9 7.1z"/><path d="m38.11 144.1c-7.1 6.9-12.7 14.9-16.8 23.9-5.7-9.7-12.6-18.2-20.8-25.4-1.5 10.7.3 20.1 5.2 28.1 4.9 8.1 11.1 14.9 18.6 20.6 4-10 7.5-18.1 10.6-24.3 3-6.1 4.1-13.8 3.2-22.9z"/><path d="m13.71 210.5c6.8 6.5 14.6 11.5 23.3 15.1 1.3-10.7 2.6-19.5 4-26.2 1.3-6.8.4-14.5-2.8-23-5.1 8.5-8.5 17.6-10.1 27.4-8.1-7.9-16.9-14.2-26.7-19.1 1.4 10.7 5.5 19.3 12.3 25.8z"/><path d="m13.31 225.2c.8 1.9 1.7 3.8 2.7 5.5 3.9 7.2 9.2 12.5 15.8 16.2 8.3 4.5 17.1 7.3 26.4 8.5-1.4-9.8-2.3-18.1-2.8-24.7-.1-.5-.1-1-.1-1.6-.5-6.9-3.4-14.1-8.7-21.5-2.1 7.6-3.1 15.3-3 23.1.1 2 .2 4 .3 6-4-2.3-8-4.3-12.2-6-6-2.4-12.1-4.3-18.4-5.5z"/><path d="m35.01 261.1c6.5 8.5 14.4 13.9 23.5 16.2 9.2 2.2 18.4 2.7 27.7 1.4-4.2-9.9-7.4-18.1-9.7-24.7-2.2-6.5-6.8-12.7-13.9-18.5-.1 9.9 1.5 19.5 4.9 28.8-10.8-2.8-21.7-3.9-32.5-3.2z"/><path d="m85.41 258.3c2.5 9.7 6.5 18.5 12.3 26.6-11.3.1-22.1 1.9-32.3 5.3 8.5 6.6 17.5 9.8 26.9 9.6 9.4-.3 18.4-2.2 27.1-5.8-6.7-8.5-11.9-15.6-15.7-21.3-3.9-5.8-9.9-10.5-18.3-14.4z"/><path d="m120.71 301c-2.9 1.1-5.7 2.3-8.4 3.7-3 1.6-5.9 3.2-8.7 5-.5.3-.9.6-1.3.9 9.9 4.1 19.4 4.9 28.4 2.2.5-.1 1-.3 1.4-.4z"/><path d="m124.41 289.8 8-7.9c-4.9-3.6-11.3-6-19-7.3 3.1 5.5 6.8 10.6 11 15.2z"/><path d="m194.31 298.5c.3-1.2-.2-2.4-1.4-3.6l-29.2-29.2c-2-2-4-2-6.1 0l-6 6 7.7 7.7c2-.6 3.7-.2 5.2 1.3s1.9 3.2 1.3 5.3l7.3 7.3c.8-.2 1.6-.3 2.3-.2 1.1.1 2.1.6 3 1.4 1 1 1.5 2.3 1.5 3.7s-.5 2.6-1.5 3.6c-2.4 2.4-4.8 2.4-7.2 0-1.3-1.3-1.8-2.7-1.5-4.3.1-.4.2-.8.4-1.3l-6.9-6.9v18.2c.4.2.8.5 1.3 1 .4.3.7.8.9 1.2.4.8.6 1.6.6 2.4 0 1.4-.5 2.6-1.5 3.6-2.4 2.4-4.8 2.4-7.2 0-1-1-1.5-2.2-1.5-3.6 0-.8.2-1.6.5-2.4.3-.4.6-.9 1-1.2.5-.6 1.1-1 1.7-1.2v-18.3c-.6-.2-1.2-.6-1.7-1.1-1.6-1.6-2-3.5-1.1-5.6l-7.5-7.5-20 19.9c-1.3 1.3-1.8 2.6-1.5 3.8.2.8.7 1.6 1.5 2.4l29.1 29.1c2 2 4 2 6.1 0l29-29c .8-.9 1.3-1.7 1.4-2.5z"/><path d="m197.51 331c-3 .4-6.1.7-9.1 1l9.6 7.2v.1c.1 0 .1 0 .1.1.2.1.2.3.3.5v.3 18.7c30.1-3.8 59.2-12.9 87.3-27.2 6-3 11.9-6.3 17.9-9.9l-10.9-9.1c-.1-.2-.3-.4-.3-.6 0-.3 0-.5.1-.7l9.9-16.6c-5.2 3.1-10.5 6-15.8 8.7-28.7 14.6-58.3 23.8-89.1 27.5zm23.2 5 2.3-3 4.7-1.2 2.3 1.9v9.6l-2.4 3-4.6 1.1-2.3-1.8zm16.5-6.3 3.3 7.2 3.4-9.3 2.3-.7v14.4l-2.3.7v-8.2l-2.1 5.8-2.5.7-2.1-4.4v8.2l-2.3.7v-14.4zm21-7 2.2 1.5v3.6l-1.1 1.6 1.1.8v3.7l-2.2 3.2-6.8 2.4v-14.4zm22.9-7.4-3.3 1.6v-2.4l8.7-4.1v2.4l-3.2 1.5v12l-2.2 1zm-12.4 3.2 2.5-.9 3.2 13.2-2.3.9-.6-2.2-3.2 1.1-.6 2.6-2.3.9zm-61.2 17.9 4.8-.9 2.3 2v1.2l-2.3.4v-.2l-1-.8-2.8.5-1 1.1v7.6l1 .9 2.8-.5 1-1.2v-.2l2.3-.4v1.2l-2.4 2.8-4.7.8-2.3-2v-9.6z"/><path d="m224.01 335.2-1 1.2v7.6l1 .8 2.7-.7 1-1.3v-7.6l-1-.7z"/><path d="m253.71 326.7v3.6l3.6-1.3.9-1.3v-1.6l-.9-.7z"/><path d="m253.71 332.7v3.6l3.6-1.3.9-1.3v-1.6l-.9-.7z"/><path d="m268.91 328 2-.7-1-4.1z"/><path d="m30.41 312.1c-.1.2-.2.4-.4.6l-10.8 9.1c10.9 6.6 22 12.3 33.3 17.3 23.3 10.1 47.2 16.7 71.9 19.8v-18.7c0-.1 0-.2 0-.3 0-.3.1-.5.4-.6v-.1h.1l9.4-7.2c-3-.3-6-.6-9-1-18-2.1-35.6-6.2-52.8-12-7-2.4-13.9-5.1-20.8-8.1-4.1-1.8-8.1-3.7-12.1-5.7-6.5-3.2-13-6.6-19.3-10.4l9.9 16.6c.2.2.2.4.2.7zm5.9.2 2.2-1.4 4.3 2.1 2.1 3.5v1.2l-2.1-1.1v-.2l-.9-1.4-2.5-1.2-.9.5v7.6l.9 1.5 2.5 1.2.9-.6v-.2l2.1 1.1v1.2l-2.2 1.3-4.2-2.1-2.2-3.4zm19.1 6.7v12l6.7 2.7v2.4l-8.9-3.6v-14.4zm14.6 17.5v-9.6l2.4-1.7 4.5 1.5 2.3 3.1v9.6l-2.4 1.7-4.4-1.5zm17-4.1 2.3-1.8 4.7 1.2 2.3 3.1v1.2l-2.3-.7v-.2l-1-1.2-2.7-.7-1 .7v1.6l1 1.3 3.7 1 2.3 3v3.6l-2.3 1.7-4.7-1.2-2.3-3v-1.2l2.3.6v.2l1 1.3 2.7.7 1-.8v-1.6l-1-1.2-3.7-1-2.3-3zm16.9 1.6 9.5 1.9v2.4l-7.1-1.4v3.6l3.5.7v2.4l-3.5-.7v3.6l7.1 1.4v2.4l-9.5-1.9z"/><path d="m73.31 327.9-.9.7v7.6l.9 1.3 2.7.9.9-.7v-7.6l-.9-1.3z"/><path d="m137.11 342.2c-.1 0-.1 0-.1 0-3.6-.3-7.2-.6-10.6-1v18.8.2 8.9c11.4 1.4 23.1 2 34.9 1.8h.1c11.8.2 23.4-.4 35-1.8v-8.9c0-.1 0-.1 0-.2v-18.8c-3.6.4-7.1.7-10.6 1h-.1c-8.1.6-16.2.8-24.4.7-8.1.1-16.2-.1-24.2-.7zm8.9 10.7-1-1h-2.8l-1 1v7.6l1 1h2.8l1-1v-1.4h-1.2v-2.4h3.6v4.8l-2.5 2.4h-4.7l-2.4-2.4v-9.6l2.4-2.4h4.8l2.4 2.4v1.2h-2.4zm14.8-3.4h2.4v14.4h-2.4zm24.4 0v2.4h-3.6v12h-2.4v-12h-3.6v-2.4z"/><path d="m128.01 339.3c2.7.3 5.3.6 8.1.8v-6.9z"/><path d="m186.71 340.1c2.7-.2 5.4-.5 8.1-.8l-8.1-6.1z"/>
</svg>
