<?xml version="1.0" encoding="utf-8"?>
<!-- Generator: Adobe Illustrator 19.0.1, SVG Export Plug-In . SVG Version: 6.00 Build 0)  -->
<svg version="1.1" id="레이어_4" xmlns="http://www.w3.org/2000/svg" xmlns:xlink="http://www.w3.org/1999/xlink" x="0px"
	 y="0px" viewBox="206 -116 1024 1024" style="enable-background:new 206 -116 1024 1024;" xml:space="preserve">
<style type="text/css">
	.st0{clip-path:url(#SVGID_2_);fill:#1E1E1E;}
	.st1{clip-path:url(#SVGID_2_);fill:#262626;}
	.st2{clip-path:url(#SVGID_2_);fill:#4C4C4C;}
	.st3{clip-path:url(#SVGID_2_);fill:#AFAFAF;}
	.st4{clip-path:url(#SVGID_2_);fill:#FFFFFF;}
</style>
<g>
	<defs>
		<circle id="SVGID_1_" cx="718" cy="396" r="512"/>
	</defs>
	<clipPath id="SVGID_2_">
		<use xlink:href="#SVGID_1_"  style="overflow:visible;"/>
	</clipPath>
	<path class="st0" d="M1363.5,958.8c0,31.7-26.8,58.5-58.5,58.5H173.5c-31.7,0-58.5-26.8-58.5-58.5V-172.7
		c0-31.7,26.8-58.5,58.5-58.5H1305c31.7,0,58.5,26.8,58.5,58.5V958.8z"/>
	<path class="st1" d="M481.4,651.7l-20-27.8c-1-1.4-3.4-2.5-5.1-2.5h-41.4c-1.7,0-3.9,1.2-4.9,2.5l-5.6,7.6l14.6,20.2
		c0.5,0.7,0.8,1.7,0.8,2.5c0,0.8-0.3,1.9-0.8,2.5L404.3,677l5.6,7.6c1,1.4,3.2,2.5,4.9,2.5h41.4c1.7,0,4.1-1.2,5.1-2.5l20-27.8
		c0.5-0.7,0.8-1.7,0.8-2.5C482.2,653.4,481.9,652.3,481.4,651.7z M447.1,630.6c2,0,3.6,1.5,3.6,3.6c0,2-1.5,3.6-3.6,3.6
		c-2,0-3.6-1.5-3.6-3.6C443.5,632.1,445,630.6,447.1,630.6z"/>
	<path class="st1" d="M412.6,654.2c0,1-0.3,1.9-0.8,2.5l-20.2,27.8c-1,1.4-3.4,2.5-5.1,2.5h-24.8c-1.2,0-1.9-0.5-1.9-1.4
		c0-0.3,0.2-0.8,0.5-1.2l22.1-30.4l-22.1-30.4l-0.5-1.2c0-0.8,0.7-1.4,1.9-1.4h24.8c1.7,0,4.1,1.2,5.1,2.5l20.2,27.8
		C412.3,652.3,412.6,653.4,412.6,654.2z"/>
	<path class="st1" d="M878.3,717.5l-20-27.8c-1-1.4-3.4-2.5-5.1-2.5h-41.4c-1.7,0-3.9,1.2-4.9,2.5l-5.6,7.6l14.6,20.2
		c0.5,0.7,0.8,1.7,0.8,2.5s-0.3,1.9-0.8,2.5l-14.6,20.2l5.6,7.6c1,1.4,3.2,2.5,4.9,2.5h41.4c1.7,0,4.1-1.2,5.1-2.5l20-27.8
		c0.5-0.7,0.8-1.7,0.8-2.5S878.8,718.2,878.3,717.5z M844,696.5c2,0,3.6,1.5,3.6,3.6s-1.5,3.6-3.6,3.6c-2,0-3.6-1.5-3.6-3.6
		S841.9,696.5,844,696.5z"/>
	<path class="st1" d="M809.5,720.1c0,1-0.3,1.9-0.8,2.5l-20.2,27.8c-1,1.4-3.4,2.5-5.1,2.5h-24.8c-1.2,0-1.9-0.5-1.9-1.4
		c0-0.3,0.2-0.8,0.5-1.2l22.1-30.4l-22.1-30.4l-0.5-1.2c0-0.8,0.7-1.4,1.9-1.4h24.8c1.7,0,4.1,1.2,5.1,2.5l20.2,27.8
		C809.2,718.2,809.5,719.2,809.5,720.1z"/>
	<path class="st1" d="M385.4,508.7l-20-27.8c-1-1.4-3.4-2.5-5.1-2.5h-41.4c-1.7,0-3.9,1.2-4.9,2.5l-5.6,7.6l14.6,20.2
		c0.5,0.7,0.8,1.7,0.8,2.5c0,0.8-0.3,1.9-0.8,2.5L308.3,534l5.6,7.6c1,1.4,3.2,2.5,4.9,2.5h41.4c1.7,0,4.1-1.2,5.1-2.5l20-27.8
		c0.5-0.7,0.8-1.7,0.8-2.5C386.2,510.4,385.9,509.4,385.4,508.7z M351.1,487.7c2,0,3.6,1.5,3.6,3.6c0,2-1.5,3.6-3.6,3.6
		c-2,0-3.6-1.5-3.6-3.6C347.5,489.2,349,487.7,351.1,487.7z"/>
	<path class="st1" d="M316.6,511.3c0,1-0.3,1.9-0.8,2.5l-20.2,27.8c-1,1.4-3.4,2.5-5.1,2.5h-24.8c-1.2,0-1.9-0.5-1.9-1.4
		c0-0.3,0.2-0.8,0.5-1.2l22.1-30.4l-22.1-30.4l-0.5-1.2c0-0.8,0.7-1.4,1.9-1.4h24.8c1.7,0,4.1,1.2,5.1,2.5l20.2,27.8
		C316.2,509.4,316.6,510.4,316.6,511.3z"/>
	<path class="st1" d="M1236.5,549.2l-20-27.8c-1-1.4-3.4-2.5-5.1-2.5h-41.4c-1.7,0-3.9,1.2-4.9,2.5l-5.6,7.6l14.6,20.2
		c0.5,0.7,0.8,1.7,0.8,2.5s-0.3,1.9-0.8,2.5l-14.6,20.2l5.6,7.6c1,1.4,3.2,2.5,4.9,2.5h41.4c1.7,0,4.1-1.2,5.1-2.5l20-27.8
		c0.5-0.7,0.8-1.7,0.8-2.5S1237,549.8,1236.5,549.2z M1202.2,528.1c2,0,3.6,1.5,3.6,3.6c0,2-1.5,3.6-3.6,3.6c-2,0-3.6-1.5-3.6-3.6
		C1198.6,529.6,1200.1,528.1,1202.2,528.1z"/>
	<path class="st1" d="M1167.7,551.7c0,1-0.3,1.9-0.8,2.5l-20.2,27.8c-1,1.4-3.4,2.5-5.1,2.5h-24.8c-1.2,0-1.9-0.5-1.9-1.4
		c0-0.3,0.2-0.8,0.5-1.2l22.1-30.4l-22.1-30.4l-0.5-1.2c0-0.8,0.7-1.4,1.9-1.4h24.8c1.7,0,4.1,1.2,5.1,2.5l20.2,27.8
		C1167.4,549.8,1167.7,550.9,1167.7,551.7z"/>
	<path class="st1" d="M1158.5,384.4l-20-27.8c-1-1.4-3.4-2.5-5.1-2.5H1092c-1.7,0-3.9,1.2-4.9,2.5l-5.6,7.6l14.6,20.2
		c0.5,0.7,0.8,1.7,0.8,2.5c0,0.8-0.3,1.9-0.8,2.5l-14.6,20.2l5.6,7.6c1,1.4,3.2,2.5,4.9,2.5h41.4c1.7,0,4.1-1.2,5.1-2.5l20-27.8
		c0.5-0.7,0.8-1.7,0.8-2.5C1159.4,386.1,1159.1,385,1158.5,384.4z M1124.2,363.3c2,0,3.6,1.5,3.6,3.6c0,2-1.5,3.6-3.6,3.6
		c-2,0-3.6-1.5-3.6-3.6C1120.7,364.8,1122.2,363.3,1124.2,363.3z"/>
	<path class="st1" d="M1089.8,386.9c0,1-0.3,1.9-0.8,2.5l-20.2,27.8c-1,1.4-3.4,2.5-5.1,2.5h-24.8c-1.2,0-1.9-0.5-1.9-1.4
		c0-0.3,0.2-0.8,0.5-1.2l22.1-30.4l-22.1-30.4l-0.5-1.2c0-0.8,0.7-1.4,1.9-1.4h24.8c1.7,0,4.1,1.2,5.1,2.5l20.2,27.8
		C1089.4,385,1089.8,386.1,1089.8,386.9z"/>
	<path class="st1" d="M1201.7,287.9l-20-27.8c-1-1.4-3.4-2.5-5.1-2.5h-41.4c-1.7,0-3.9,1.2-4.9,2.5l-5.6,7.6l14.6,20.2
		c0.5,0.7,0.8,1.7,0.8,2.5c0,0.8-0.3,1.9-0.8,2.5l-14.6,20.2l5.6,7.6c1,1.4,3.2,2.5,4.9,2.5h41.4c1.7,0,4.1-1.2,5.1-2.5l20-27.8
		c0.5-0.7,0.8-1.7,0.8-2.5C1202.5,289.6,1202.2,288.6,1201.7,287.9z M1167.4,266.8c2,0,3.6,1.5,3.6,3.6c0,2-1.5,3.6-3.6,3.6
		c-2,0-3.6-1.5-3.6-3.6C1163.8,268.3,1165.3,266.8,1167.4,266.8z"/>
	<path class="st1" d="M1132.9,290.4c0,1-0.3,1.9-0.8,2.5l-20.2,27.8c-1,1.4-3.4,2.5-5.1,2.5H1082c-1.2,0-1.9-0.5-1.9-1.4
		c0-0.3,0.2-0.8,0.5-1.2l22.1-30.4l-22.1-30.4l-0.5-1.2c0-0.8,0.7-1.4,1.9-1.4h24.8c1.7,0,4.1,1.2,5.1,2.5l20.2,27.8
		C1132.6,288.6,1132.9,289.6,1132.9,290.4z"/>
	<path class="st1" d="M420.2,307.6l-20-27.8c-1-1.4-3.4-2.5-5.1-2.5h-41.4c-1.7,0-3.9,1.2-4.9,2.5l-5.6,7.6l14.6,20.2
		c0.5,0.7,0.8,1.7,0.8,2.5c0,0.8-0.3,1.9-0.8,2.5l-14.6,20.2l5.6,7.6c1,1.4,3.2,2.5,4.9,2.5H395c1.7,0,4.1-1.2,5.1-2.5l20-27.8
		c0.5-0.7,0.8-1.7,0.8-2.5C421,309.3,420.7,308.2,420.2,307.6z M385.9,286.5c2,0,3.6,1.5,3.6,3.6c0,2-1.5,3.6-3.6,3.6
		c-2,0-3.6-1.5-3.6-3.6C382.3,288,383.8,286.5,385.9,286.5z"/>
	<path class="st1" d="M351.4,310.1c0,1-0.3,1.9-0.8,2.5l-20.2,27.8c-1,1.4-3.4,2.5-5.1,2.5h-24.8c-1.2,0-1.9-0.5-1.9-1.4
		c0-0.3,0.2-0.8,0.5-1.2l22.1-30.4l-22.1-30.4l-0.5-1.2c0-0.8,0.7-1.4,1.9-1.4h24.8c1.7,0,4.1,1.2,5.1,2.5l20.2,27.8
		C351.1,308.2,351.4,309.3,351.4,310.1z"/>
	<path class="st1" d="M794.3,668.1l-20-27.8c-1-1.4-3.4-2.5-5.1-2.5h-41.4c-1.7,0-3.9,1.2-4.9,2.5l-5.6,7.6l14.6,20.2
		c0.5,0.7,0.8,1.7,0.8,2.5s-0.3,1.9-0.8,2.5l-14.6,20.2l5.6,7.6c1,1.4,3.2,2.5,4.9,2.5h41.4c1.7,0,4.1-1.2,5.1-2.5l20-27.8
		c0.5-0.7,0.8-1.7,0.8-2.5S794.8,668.8,794.3,668.1z M760,647.1c2,0,3.6,1.5,3.6,3.6c0,2-1.5,3.6-3.6,3.6c-2,0-3.6-1.5-3.6-3.6
		C756.4,648.6,758,647.1,760,647.1z"/>
	<path class="st1" d="M725.5,670.7c0,1-0.3,1.9-0.8,2.5l-20.2,27.8c-1,1.4-3.4,2.5-5.1,2.5h-24.8c-1.2,0-1.9-0.5-1.9-1.4
		c0-0.3,0.2-0.8,0.5-1.2l22.1-30.4l-22.1-30.4l-0.5-1.2c0-0.8,0.7-1.4,1.9-1.4h24.8c1.7,0,4.1,1.2,5.1,2.5l20.2,27.8
		C725.2,668.8,725.5,669.8,725.5,670.7z"/>
	<path class="st1" d="M385.4,186.9l-20-27.8c-1-1.4-3.4-2.5-5.1-2.5h-41.4c-1.7,0-3.9,1.2-4.9,2.5l-5.6,7.6l14.6,20.2
		c0.5,0.7,0.8,1.7,0.8,2.5s-0.3,1.9-0.8,2.5l-14.6,20.2l5.6,7.6c1,1.4,3.2,2.5,4.9,2.5h41.4c1.7,0,4.1-1.2,5.1-2.5l20-27.8
		c0.5-0.7,0.8-1.7,0.8-2.5S385.9,187.6,385.4,186.9z M351.1,165.9c2,0,3.6,1.5,3.6,3.6c0,2-1.5,3.6-3.6,3.6s-3.6-1.5-3.6-3.6
		C347.5,167.4,349,165.9,351.1,165.9z"/>
	<path class="st1" d="M316.6,189.5c0,1-0.3,1.9-0.8,2.5l-20.2,27.8c-1,1.4-3.4,2.5-5.1,2.5h-24.8c-1.2,0-1.9-0.5-1.9-1.4
		c0-0.3,0.2-0.8,0.5-1.2l22.1-30.4l-22.1-30.4l-0.5-1.2c0-0.8,0.7-1.4,1.9-1.4h24.8c1.7,0,4.1,1.2,5.1,2.5l20.2,27.8
		C316.2,187.6,316.6,188.6,316.6,189.5z"/>
	<path class="st1" d="M572.2,219.9l-20-27.8c-1-1.4-3.4-2.5-5.1-2.5h-41.4c-1.7,0-3.9,1.2-4.9,2.5l-5.6,7.6l14.6,20.2
		c0.5,0.7,0.8,1.7,0.8,2.5s-0.3,1.9-0.8,2.5l-14.6,20.2l5.6,7.6c1,1.4,3.2,2.5,4.9,2.5h41.4c1.7,0,4.1-1.2,5.1-2.5l20-27.8
		c0.5-0.7,0.8-1.7,0.8-2.5S572.7,220.5,572.2,219.9z M537.9,198.8c2,0,3.6,1.5,3.6,3.6s-1.5,3.6-3.6,3.6s-3.6-1.5-3.6-3.6
		S535.9,198.8,537.9,198.8z"/>
	<path class="st1" d="M503.5,222.4c0,1-0.3,1.9-0.8,2.5l-20.2,27.8c-1,1.4-3.4,2.5-5.1,2.5h-24.8c-1.2,0-1.9-0.5-1.9-1.4
		c0-0.3,0.2-0.8,0.5-1.2l22.1-30.4L451.2,192l-0.5-1.2c0-0.8,0.7-1.4,1.9-1.4h24.8c1.7,0,4.1,1.2,5.1,2.5l20.2,27.8
		C503.1,220.5,503.5,221.6,503.5,222.4z"/>
	<path class="st2" d="M605.9,346.8l-42-58.4c-2.1-2.9-7.1-5.3-10.7-5.3h-86.9c-3.6,0-8.2,2.5-10.3,5.3l-11.8,16l30.6,42.4
		c1.1,1.4,1.8,3.6,1.8,5.3c0,1.8-0.7,3.9-1.8,5.3l-30.6,42.4l11.8,16c2.1,2.9,6.8,5.3,10.3,5.3h86.9c3.6,0,8.6-2.5,10.7-5.3l42-58.4
		c1.1-1.4,1.8-3.6,1.8-5.3C607.7,350.4,607,348.2,605.9,346.8z M534,302.6c4.3,0,7.5,3.2,7.5,7.5s-3.2,7.5-7.5,7.5s-7.5-3.2-7.5-7.5
		S529.7,302.6,534,302.6z"/>
	<path class="st2" d="M461.7,352.2c0,2.1-0.7,3.9-1.8,5.3l-42.4,58.4c-2.1,2.9-7.1,5.3-10.7,5.3h-52c-2.5,0-3.9-1.1-3.9-2.9
		c0-0.7,0.4-1.8,1.1-2.5l46.3-63.8l-46.3-63.8l-1.1-2.5c0-1.8,1.4-2.9,3.9-2.9h52c3.6,0,8.6,2.5,10.7,5.3l42.4,58.4
		C460.9,348.2,461.7,350.4,461.7,352.2z"/>
	<path class="st2" d="M1047.8,193.5l-42-58.4c-2.1-2.9-7.1-5.3-10.7-5.3h-86.9c-3.6,0-8.2,2.5-10.3,5.3l-11.8,16l30.6,42.4
		c1.1,1.4,1.8,3.6,1.8,5.3s-0.7,3.9-1.8,5.3L886,246.6l11.8,16c2.1,2.9,6.8,5.3,10.3,5.3H995c3.6,0,8.6-2.5,10.7-5.3l42-58.4
		c1.1-1.4,1.8-3.6,1.8-5.3S1048.8,194.9,1047.8,193.5z M975.8,149.3c4.3,0,7.5,3.2,7.5,7.5s-3.2,7.5-7.5,7.5s-7.5-3.2-7.5-7.5
		S971.5,149.3,975.8,149.3z"/>
	<path class="st2" d="M903.5,198.8c0,2.1-0.7,3.9-1.8,5.3l-42.4,58.4c-2.1,2.9-7.1,5.3-10.7,5.3h-52c-2.5,0-3.9-1.1-3.9-2.9
		c0-0.7,0.4-1.8,1.1-2.5l46.3-63.8L793.7,135l-1.1-2.5c0-1.8,1.4-2.9,3.9-2.9h52c3.6,0,8.6,2.5,10.7,5.3l42.4,58.4
		C902.8,194.9,903.5,197,903.5,198.8z"/>
	<path class="st2" d="M1073,588.4l-42-58.4c-2.1-2.9-7.1-5.3-10.7-5.3h-86.9c-3.6,0-8.2,2.5-10.3,5.3l-11.8,16l30.6,42.4
		c1.1,1.4,1.8,3.6,1.8,5.3s-0.7,3.9-1.8,5.3l-30.6,42.4l11.8,16c2.1,2.9,6.8,5.3,10.3,5.3h86.9c3.6,0,8.6-2.5,10.7-5.3l42-58.4
		c1.1-1.4,1.8-3.6,1.8-5.3S1074.1,589.8,1073,588.4z M1001,544.2c4.3,0,7.5,3.2,7.5,7.5s-3.2,7.5-7.5,7.5s-7.5-3.2-7.5-7.5
		S996.8,544.2,1001,544.2z"/>
	<path class="st2" d="M928.7,593.7c0,2.1-0.7,3.9-1.8,5.3l-42.4,58.4c-2.1,2.9-7.1,5.3-10.7,5.3h-52c-2.5,0-3.9-1.1-3.9-2.9
		c0-0.7,0.4-1.8,1.1-2.5l46.3-63.8L819,530l-1.1-2.5c0-1.8,1.4-2.9,3.9-2.9h52c3.6,0,8.6,2.5,10.7,5.3l42.4,58.4
		C928,589.8,928.7,592,928.7,593.7z"/>
	<path class="st3" d="M844.4,493.4l-78.3-108.9c-4-5.3-13.3-10-19.9-10h-162c-6.6,0-15.3,4.6-19.3,10L543,414.4l57.1,79
		c2,2.7,3.3,6.6,3.3,10s-1.3,7.3-3.3,10l-57.1,79l21.9,29.9c4,5.3,12.6,10,19.3,10h162c6.6,0,15.9-4.6,19.9-10l78.3-108.9
		c2-2.7,3.3-6.6,3.3-10S846.4,496,844.4,493.4z M710.3,411c8,0,13.9,6,13.9,13.9s-6,13.9-13.9,13.9c-8,0-13.9-6-13.9-13.9
		S702.3,411,710.3,411z"/>
	<path class="st3" d="M575.5,503.3c0,4-1.3,7.3-3.3,10l-79,108.9c-4,5.3-13.3,10-19.9,10h-96.9c-4.6,0-7.3-2-7.3-5.3
		c0-1.3,0.7-3.3,2-4.6l86.3-118.8L371,384.5l-2-4.6c0-3.3,2.7-5.3,7.3-5.3h96.9c6.6,0,15.9,4.6,19.9,10l79,108.9
		C574.2,496,575.5,500,575.5,503.3z"/>
	<path class="st4" d="M1083.1,382.6L977.5,235.8c-5.4-7.2-17.9-13.4-26.8-13.4H732.3c-8.9,0-20.6,6.3-25.9,13.4l-29.5,40.3
		l76.9,106.5c2.7,3.6,4.5,8.9,4.5,13.4c0,4.5-1.8,9.8-4.5,13.4l-76.9,106.5l29.5,40.3c5.4,7.2,17,13.4,25.9,13.4h218.3
		c8.9,0,21.5-6.3,26.8-13.4l105.6-146.7c2.7-3.6,4.5-8.9,4.5-13.4C1087.5,391.5,1085.7,386.2,1083.1,382.6z M902.3,271.6
		c10.7,0,18.8,8.1,18.8,18.8c0,10.7-8.1,18.8-18.8,18.8s-18.8-8.1-18.8-18.8C883.5,279.7,891.6,271.6,902.3,271.6z"/>
	<path class="st4" d="M720.7,396c0,5.4-1.8,9.8-4.5,13.4L609.7,556.2c-5.4,7.2-17.9,13.4-26.8,13.4H452.3c-6.3,0-9.8-2.7-9.8-7.2
		c0-1.8,0.9-4.5,2.7-6.3L561.4,396L445.1,235.8l-2.7-6.3c0-4.5,3.6-7.2,9.8-7.2h130.6c8.9,0,21.5,6.3,26.8,13.4l106.5,146.7
		C718.9,386.2,720.7,391.5,720.7,396z"/>
</g>
</svg>
